<?xml version="1.0" encoding="UTF-8" standalone="no"?>
<!-- Created with Inkscape (http://www.inkscape.org/) -->

<svg
   width="173.52544mm"
   height="102.8849mm"
   viewBox="0 0 173.52544 102.8849"
   version="1.1"
   id="svg1"
   xml:space="preserve"
   xmlns:inkscape="http://www.inkscape.org/namespaces/inkscape"
   xmlns:sodipodi="http://sodipodi.sourceforge.net/DTD/sodipodi-0.dtd"
   xmlns="http://www.w3.org/2000/svg"
   xmlns:svg="http://www.w3.org/2000/svg"><sodipodi:namedview
     id="namedview1"
     pagecolor="#ffffff"
     bordercolor="#000000"
     borderopacity="0.25"
     inkscape:showpageshadow="2"
     inkscape:pageopacity="0.0"
     inkscape:pagecheckerboard="0"
     inkscape:deskcolor="#d1d1d1"
     inkscape:document-units="mm" /><defs
     id="defs1" /><g
     inkscape:label="Layer 1"
     inkscape:groupmode="layer"
     id="layer1"
     transform="translate(-18.237276,-86.23155)"><path
       style="fill:#c7521f;stroke:none"
       d="m 18.444663,86.56234 c -0.383515,2.63326 -0.117647,5.57285 -0.117647,8.24819 v 15.74655 c 0,2.79695 0.351004,6.29825 3.058828,6.29862 v -8.24819 h 0.117647 c 0.06433,3.97285 2.717158,8.43937 5.176479,10.64767 -0.296811,-2.97819 -0.416447,-5.84601 1.306466,-8.24762 2.471873,-3.4456 7.204302,-4.4935 7.39943,-10.19834 h 0.117647 c -0.02178,3.59306 -0.117647,7.19572 -0.117647,10.79763 0,1.16716 0.318954,3.29519 -0.155048,4.32625 -0.482884,1.05039 -1.468282,-0.51633 -1.784044,-1.02697 -1.186615,-1.91896 -1.472678,-3.92102 -1.472678,-6.29862 -3.051605,1.81825 -5.138877,5.75653 -4.18492,10.0478 0.183997,0.82769 0.470496,2.34867 1.070717,2.84521 0.397764,0.32906 1.131405,0.15413 1.584789,0.15413 h 3.882359 c 0.962341,0 3.133329,0.51712 3.939549,-0.19764 0.419211,-0.37165 0.295724,-1.34421 0.295751,-1.9019 v -5.54878 c 0,-6.02932 0.20409,-12.12325 -0.0046,-18.14603 -0.08513,-2.45649 -1.021582,-4.64869 -3.054199,-4.64898 v 8.39816 h -0.117647 c -0.02624,-4.04034 -2.675016,-8.5515 -5.176479,-10.79764 0.296814,2.97819 0.416445,5.84601 -1.306466,8.24762 -2.47187,3.44559 -7.204313,4.49351 -7.39943,10.19835 h -0.117647 c 0.05591,-3.54756 0.117647,-7.09335 0.117647,-10.64767 0,-1.20139 -0.332274,-3.4162 0.155048,-4.47623 0.482883,-1.05037 1.468285,0.51635 1.784044,1.02698 1.185457,1.91708 1.472678,3.92634 1.472678,6.29862 3.048512,-1.81641 5.137546,-5.76251 4.18492,-10.0478 -0.183997,-0.82769 -0.470494,-2.34867 -1.070717,-2.84521 -0.589288,-0.48749 -1.957982,-0.15413 -2.643614,-0.15413 -2.294281,0 -4.665055,-0.21671 -6.941187,0.14997 m 22.000034,0 c -0.282873,2.85312 -0.117647,5.82226 -0.117647,8.69809 v 15.14669 c 0,2.82349 0.291906,6.4482 3.058828,6.44858 0,-5.85652 0.117647,-11.69591 0.117647,-17.54615 v -4.94892 c 0,-0.68665 -0.105188,-1.60171 0.168664,-2.22672 0.483895,-1.10437 1.558561,0.66358 1.85957,1.17695 1.121573,1.91285 1.383537,3.82091 1.383537,6.14865 3.048509,-1.81641 5.137541,-5.76251 4.184917,-10.0478 -0.183996,-0.82768 -0.470492,-2.34867 -1.070716,-2.84521 -0.56864,-0.47041 -1.86565,-0.15413 -2.525965,-0.15413 -2.284368,0 -4.81098,-0.382 -7.058835,0.14997 m 21.76474,0 c -0.28287,2.85313 -0.117647,5.82225 -0.117647,8.69809 v 15.29665 c 0,2.60911 0.350823,6.5863 3.058828,6.29862 v -8.24819 h 0.117647 c 0.06434,3.97286 2.71715,8.43936 5.176479,10.64767 -0.189231,-3.03105 -0.470937,-5.77007 1.306467,-8.24762 2.488784,-3.46915 7.305169,-4.55887 7.399429,-10.34831 h 0.117647 c -0.0075,3.59281 -0.117647,7.19719 -0.117647,10.79764 0,1.20138 0.332276,3.41619 -0.155044,4.47621 -0.482889,1.05039 -1.468278,-0.51632 -1.784046,-1.02697 -1.192011,-1.92768 -1.47268,-3.91382 -1.47268,-6.29862 -3.046675,1.81532 -5.136777,5.76595 -4.184918,10.0478 0.184,0.8277 0.470489,2.34867 1.070716,2.84521 0.568641,0.47042 1.865651,0.15413 2.525966,0.15413 2.284373,0 4.810971,0.38199 7.058834,-0.14996 0.282866,-2.85314 0.117648,-5.82226 0.117648,-8.6981 V 97.65991 c 0,-2.81702 -0.299403,-6.44819 -3.058829,-6.44859 v 8.39816 h -0.117647 c -0.02624,-4.04114 -2.673287,-8.54994 -5.176479,-10.79764 0.189235,3.03105 0.470934,5.77007 -1.306466,8.24762 -0.760629,1.06025 -1.763653,1.57801 -2.69354,2.33166 -2.143888,1.73757 -4.484328,4.25889 -4.70589,7.71672 h -0.117647 c 0.0018,-3.53804 0.117647,-7.09767 0.117647,-10.64767 0,-1.16715 -0.318959,-3.2952 0.155048,-4.32626 0.482893,-1.05039 1.468285,0.51635 1.784042,1.02698 1.192012,1.92769 1.47268,3.91382 1.47268,6.29862 3.056761,-1.82132 5.140246,-5.75035 4.184918,-10.0478 -0.183996,-0.82768 -0.470492,-2.34867 -1.070716,-2.84521 -0.589292,-0.48749 -1.957978,-0.15413 -2.643613,-0.15413 -2.294279,0 -4.665057,-0.21671 -6.941187,0.14997 m 21.647093,0 c -0.282873,2.85313 -0.117647,5.82225 -0.117647,8.69809 v 15.14669 c 0,2.82621 0.294965,6.4482 3.058828,6.44858 0,-5.90683 0.117647,-11.79506 0.117647,-17.69612 v -4.79895 c 0,-0.67266 -0.123492,-1.62085 0.155044,-2.22672 0.482897,-1.0504 1.468286,0.51635 1.784046,1.02698 1.185455,1.91708 1.47268,3.92634 1.47268,6.29862 3.056757,-1.82134 5.140247,-5.75034 4.184917,-10.0478 -0.184,-0.82768 -0.47049,-2.34867 -1.07071,-2.84521 -0.589293,-0.48749 -1.957984,-0.15413 -2.643618,-0.15413 -2.294279,0 -4.665061,-0.21671 -6.941187,0.14997 m 22.117671,0 c -0.28287,2.85313 -0.11764,5.82225 -0.11764,8.69809 v 14.99672 c 0,2.84933 0.23425,6.59816 3.05882,6.59855 0,-5.90724 0.11765,-11.79371 0.11765,-17.69612 v -4.79895 c 0,-0.67267 -0.12349,-1.62084 0.15504,-2.22672 0.4829,-1.0504 1.46829,0.51635 1.78405,1.02698 1.18546,1.91708 1.47268,3.92634 1.47268,6.29862 3.04851,-1.81643 5.13754,-5.7625 4.18492,-10.0478 -0.184,-0.82768 -0.47049,-2.34867 -1.07071,-2.84521 -0.56865,-0.47041 -1.86566,-0.15413 -2.52597,-0.15413 -2.28437,0 -4.81099,-0.382 -7.05884,0.14997 m 21.6471,0 c -0.38352,2.63325 -0.11765,5.57286 -0.11765,8.24819 v 15.74655 c 0,2.79695 0.351,6.29825 3.05883,6.29862 0,-5.90698 0.11764,-11.79461 0.11764,-17.69612 v -4.79895 c 0,-0.67266 -0.12349,-1.62085 0.15505,-2.22672 0.48289,-1.0504 1.46828,0.51635 1.78404,1.02698 1.18546,1.91708 1.47268,3.92634 1.47268,6.29862 3.04852,-1.81643 5.13753,-5.76249 4.18492,-10.0478 -0.18399,-0.82767 -0.4705,-2.34868 -1.07071,-2.84521 -0.58929,-0.48749 -1.95798,-0.15413 -2.64362,-0.15413 -2.29427,0 -4.66505,-0.21671 -6.94118,0.14997 m 24.70592,30.29336 c 0,-5.90646 0.11764,-11.79605 0.11764,-17.69612 v -4.79895 c 0,-0.67267 -0.12349,-1.62083 0.15505,-2.22672 0.48289,-1.05038 1.46829,0.51635 1.78405,1.02698 1.19201,1.92767 1.47267,3.91383 1.47267,6.29862 3.05368,-1.81948 5.13891,-5.75632 4.18492,-10.0478 -0.18399,-0.82768 -0.4705,-2.34868 -1.07071,-2.84521 -0.39776,-0.32905 -1.13141,-0.15413 -1.58479,-0.15413 h -3.88236 c -0.96235,0 -3.13332,-0.51712 -3.93955,0.19764 -0.41923,0.37167 -0.29572,1.3442 -0.29575,1.9019 v 5.54879 c 0,6.02932 -0.20406,12.12323 0.005,18.14602 0.0851,2.45647 1.02162,4.6487 3.05421,4.64898 m 22.11768,0 v -8.24819 h 0.11764 c 0.0643,3.97283 2.71721,8.4394 5.17648,10.64767 -0.29697,-2.97962 -0.41561,-5.84417 1.30647,-8.24762 2.46955,-3.44665 7.20423,-4.49168 7.39943,-10.19834 h 0.11765 c 0,3.69299 -0.11765,7.39613 -0.11765,11.09757 0,1.06717 0.32126,3.26484 -0.22803,4.14909 -0.50762,0.81718 -1.42325,-0.68431 -1.71107,-1.14975 -1.19201,-1.92766 -1.47267,-3.91384 -1.47267,-6.29862 -3.05028,1.81746 -5.13825,5.75928 -4.18492,10.0478 0.18835,0.84731 0.45381,2.20823 1.0335,2.75889 0.42148,0.40036 1.12749,0.24045 1.62201,0.24045 h 3.88235 c 0.96235,0 3.13332,0.51711 3.93955,-0.19764 0.41922,-0.37166 0.29573,-1.34419 0.29576,-1.9019 v -5.39882 c 0,-6.10031 0.32393,-12.36214 -0.0105,-18.44596 -0.12461,-2.26669 -1.06266,-4.70997 -3.0483,-4.49901 v 8.24819 h -0.11765 c -0.0643,-3.97284 -2.71719,-8.43939 -5.17648,-10.64767 0.18908,3.02817 0.46779,5.77049 -1.30647,8.24762 -2.46588,3.44273 -7.2045,4.49967 -7.39943,10.19835 h -0.11764 c 0,-3.69338 0.11764,-7.39648 0.11764,-11.09757 0,-1.06717 -0.32126,-3.26486 0.22803,-4.1491 0.50763,-0.81718 1.42326,0.68431 1.71107,1.14975 1.19203,1.92768 1.47268,3.91383 1.47268,6.29862 3.05028,-1.81746 5.13824,-5.75928 4.18492,-10.0478 -0.184,-0.82768 -0.47051,-2.34867 -1.07072,-2.84521 -0.39776,-0.32905 -1.13142,-0.15413 -1.58479,-0.15413 h -3.88236 c -0.96236,0 -3.13332,-0.51711 -3.93955,0.19764 -0.41921,0.37166 -0.29572,1.34421 -0.29575,1.9019 v 5.54879 c 0,6.02932 -0.20406,12.12323 0.005,18.14602 0.0849,2.44903 1.03072,4.6487 3.05421,4.64898 M 52.209421,88.81184 c 0.182945,2.9303 0.420903,5.23026 -1.015342,7.7983 -1.325144,2.36938 -3.870664,3.37853 -5.54231,5.36063 -3.240333,3.84211 -2.135634,9.41876 0.220133,13.38526 0.827122,1.39266 1.801415,2.88957 2.925749,3.89915 -0.296028,-2.97028 -0.387954,-5.61877 1.196898,-8.09765 1.092851,-1.70934 2.851237,-2.52458 4.214876,-3.83932 2.729051,-2.6312 3.94953,-6.66971 2.698171,-10.85804 -0.399975,-1.33872 -1.111679,-2.60254 -1.775333,-3.74918 -0.809456,-1.39855 -1.805286,-2.89565 -2.922842,-3.89915 m 43.411833,0 c 0.18289,2.92912 0.4218,5.23178 -1.01535,7.7983 -1.32677,2.36941 -3.865819,3.38421 -5.542306,5.36075 -3.242071,3.82231 -2.124745,9.43696 0.220136,13.38514 0.827128,1.39267 1.801416,2.88957 2.92575,3.89915 -0.28818,-2.89155 -0.406488,-5.50266 1.10467,-7.94826 1.108,-1.79315 2.90335,-2.63529 4.3071,-3.98871 2.731506,-2.63357 3.949466,-6.66989 2.698166,-10.85804 -0.398116,-1.33253 -1.100516,-2.61788 -1.772416,-3.74918 -0.82713,-1.39267 -1.80142,-2.88956 -2.92575,-3.89915 m 22.117676,0 c 0.29683,2.97833 0.38277,5.60884 -1.1969,8.09811 -1.09157,1.72012 -2.84474,2.51785 -4.21488,3.83887 -2.72388,2.62621 -3.94779,6.67549 -2.69817,10.85803 0.39997,1.33871 1.11169,2.60254 1.77533,3.74918 0.80945,1.39856 1.80531,2.89566 2.92285,3.89915 -0.21188,-3.39342 -0.35756,-6.16495 1.69708,-8.82029 0.61488,-0.79465 1.45895,-1.17031 2.18528,-1.75899 2.15608,-1.74745 4.5856,-4.34871 4.70589,-7.86668 h 0.11764 c -0.0215,3.59514 -0.11764,7.19541 -0.11764,10.79763 0,1.16715 0.31895,3.2952 -0.15505,4.32625 -0.48289,1.05039 -1.46828,-0.51632 -1.78404,-1.02697 -1.18663,-1.91897 -1.47268,-3.92101 -1.47268,-6.29862 -3.00774,1.79213 -4.99826,5.85982 -4.06727,10.0478 0.18835,0.8473 0.45379,2.20822 1.03349,2.75889 0.42147,0.40037 1.12749,0.24045 1.62201,0.24045 h 3.76471 c 0.96235,0 3.13333,0.51712 3.93955,-0.19764 0.41921,-0.37165 0.29572,-1.34421 0.29575,-1.9019 v -5.54878 c 0,-6.02932 0.20408,-12.12325 -0.005,-18.14603 -0.0851,-2.45648 -1.02157,-4.64869 -3.0542,-4.64898 v 8.39816 h -0.11764 c -0.0262,-4.04034 -2.67502,-8.55147 -5.17648,-10.79764 m 21.64709,0 c 0.29685,2.9783 0.38278,5.60889 -1.19689,8.09811 -1.09159,1.7201 -2.84474,2.51785 -4.21488,3.83887 -2.72388,2.62621 -3.9478,6.67549 -2.69818,10.85803 0.39812,1.33253 1.10053,2.61788 1.77243,3.74918 0.82712,1.39266 1.80142,2.88957 2.92575,3.89915 -0.18289,-2.92912 -0.4218,-5.23177 1.01535,-7.79829 1.32695,-2.36974 3.86812,-3.38309 5.54239,-5.36063 3.24218,-3.82945 2.12977,-9.42857 -0.22023,-13.38527 -0.82713,-1.39266 -1.8014,-2.88956 -2.92574,-3.89915 m 21.76474,0 c 0.18296,2.93027 0.42091,5.23029 -1.01534,7.7983 -1.32515,2.36937 -3.87065,3.37854 -5.54232,5.36063 -3.26945,3.87658 -2.0956,9.37916 0.22305,13.38526 0.80945,1.39855 1.80529,2.89566 2.92284,3.89915 -0.18341,-2.93745 -0.41276,-5.21852 1.01571,-7.79829 1.31496,-2.37476 3.8689,-3.38445 5.54203,-5.36063 3.24218,-3.82945 2.12977,-9.42857 -0.22023,-13.38527 -0.82713,-1.39265 -1.8014,-2.88957 -2.92574,-3.89915 m -60.11774,2.39948 c 0,5.85588 -0.11765,11.69747 -0.11765,17.54616 v 4.94891 c 0,0.68665 0.10518,1.60172 -0.16866,2.22671 -0.48389,1.10437 -1.558556,-0.66355 -1.859566,-1.17694 -1.11614,-1.90359 -1.38353,-3.82867 -1.38353,-6.14865 -3.04851,1.81643 -5.137542,5.7625 -4.18492,10.0478 0.184,0.82768 0.4705,2.34868 1.07071,2.84521 0.39776,0.32905 1.13141,0.15413 1.58479,0.15413 h 3.88236 c 0.962336,0 3.133316,0.51712 3.939546,-0.19764 0.41922,-0.37166 0.29572,-1.3442 0.29575,-1.9019 v -5.39882 c 0,-6.10029 0.32398,-12.36216 -0.0105,-18.44596 -0.12502,-2.27373 -1.05326,-4.71097 -3.0483,-4.49901 m -43.411825,0 c 0,5.90665 -0.117648,11.79556 -0.117648,17.69612 v 4.79895 c 0,0.67267 0.123489,1.62083 -0.155047,2.22671 -0.482886,1.05039 -1.468278,-0.51633 -1.784043,-1.02697 -1.186618,-1.91897 -1.47268,-3.92101 -1.47268,-6.29862 -3.042234,1.81267 -5.136177,5.76864 -4.184918,10.0478 0.184,0.8277 0.470489,2.34867 1.070717,2.84521 0.56864,0.47042 1.865653,0.15413 2.525965,0.15413 2.284377,0 4.810967,0.38198 7.058835,-0.14996 0.282869,-2.85314 0.117647,-5.82226 0.117647,-8.6981 V 97.65991 c 0,-2.81702 -0.299403,-6.44819 -3.058828,-6.44859 m 87.176595,0 c 0,5.85672 -0.11764,11.69542 -0.11764,17.54616 v 4.94891 c 0,0.68666 0.10518,1.60171 -0.16866,2.22671 -0.48389,1.1044 -1.55857,-0.66357 -1.85958,-1.17694 -1.11614,-1.90359 -1.38353,-3.82867 -1.38353,-6.14865 -3.04852,1.81641 -5.13754,5.76251 -4.18492,10.0478 0.184,0.82769 0.47049,2.34867 1.07071,2.84521 0.58928,0.48749 1.95798,0.15413 2.64362,0.15413 2.29428,0 4.66504,0.21672 6.94118,-0.14996 0.38352,-2.63327 0.11765,-5.57286 0.11765,-8.2482 V 97.50994 c 0,-2.79696 -0.351,-6.29823 -3.05883,-6.29862 m 21.76474,0 c 0,5.90712 -0.11764,11.79416 -0.11764,17.69612 v 4.79895 c 0,0.67267 0.12349,1.62084 -0.15505,2.22671 -0.48288,1.05037 -1.46828,-0.51632 -1.78405,-1.02697 -1.18663,-1.91895 -1.47267,-3.92103 -1.47267,-6.29862 -3.04854,1.81642 -5.13754,5.7625 -4.18493,10.0478 0.184,0.82768 0.47052,2.34869 1.07072,2.84521 0.39775,0.32904 1.13142,0.15413 1.58479,0.15413 h 3.88236 c 0.96233,0 3.13332,0.51712 3.93955,-0.19764 0.41921,-0.37166 0.29572,-1.3442 0.29575,-1.9019 v -5.54878 c 0,-6.02932 0.20406,-12.12324 -0.005,-18.14603 -0.0849,-2.44904 -1.03071,-4.64869 -3.05421,-4.64898 M 18.444663,120.60488 c -0.282868,2.85313 -0.117647,5.82226 -0.117647,8.6981 v 15.29665 c 0,2.56258 0.356378,6.6625 3.058828,6.29862 v -8.24819 h 0.117647 c 0.06433,3.97285 2.717158,8.43937 5.176479,10.64767 -0.296811,-2.97819 -0.416449,-5.84602 1.306466,-8.24762 2.472259,-3.44613 7.204422,-4.49693 7.39943,-10.19835 h 0.117647 c 0,3.59098 -0.117647,7.19579 -0.117647,10.79764 0,1.16716 0.318954,3.29519 -0.155048,4.32625 -0.482884,1.05039 -1.468282,-0.51633 -1.784044,-1.02697 -1.185451,-1.91708 -1.472678,-3.92634 -1.472678,-6.29862 -3.053646,1.81952 -5.138927,5.7563 -4.18492,10.0478 0.183999,0.8277 0.47049,2.34866 1.070717,2.84521 0.589292,0.48749 1.957978,0.15413 2.643614,0.15413 2.294281,0 4.665053,0.21672 6.941187,-0.14997 0.383515,-2.63326 0.117647,-5.57285 0.117647,-8.24819 v -15.74655 c 0,-2.80749 -0.349468,-6.29825 -3.058828,-6.29862 v 8.24819 h -0.117647 c -0.06421,-3.96595 -2.721007,-8.44283 -5.176479,-10.64767 0.189231,3.03104 0.470935,5.77007 -1.306466,8.24762 -0.760626,1.06025 -1.763653,1.57801 -2.69354,2.33166 -2.140285,1.73464 -4.484787,4.26603 -4.70589,7.71671 h -0.117647 c 0.02271,-3.54359 0.117647,-7.09569 0.117647,-10.64766 0,-1.16716 -0.318953,-3.29519 0.155048,-4.32626 0.509429,-1.10812 1.545229,0.65478 1.856847,1.17695 1.139168,1.90886 1.399875,3.81108 1.399875,6.14865 3.053648,-1.81952 5.138927,-5.7563 4.18492,-10.0478 -0.183997,-0.82769 -0.470495,-2.34867 -1.070717,-2.84521 -0.56864,-0.47042 -1.865654,-0.15413 -2.525967,-0.15413 -2.284374,0 -4.810969,-0.38198 -7.058834,0.14996 m 22.000034,0 c -0.282871,2.85313 -0.117647,5.82227 -0.117647,8.6981 v 14.99672 c 0,2.86125 0.23518,6.59816 3.058828,6.59855 0,-5.85588 0.117647,-11.69747 0.117647,-17.54616 v -4.94891 c 0,-0.68666 -0.105188,-1.60171 0.168664,-2.22672 0.483891,-1.10436 1.558559,0.66357 1.85957,1.17695 1.121571,1.91285 1.383537,3.82091 1.383537,6.14865 2.996845,-1.78568 5.104589,-5.66015 4.217054,-9.89783 -0.187511,-0.8953 -0.48667,-2.5118 -1.170573,-2.99518 -0.662042,-0.46794 -1.951757,-0.15413 -2.69354,-0.15413 -2.210147,0 -4.6485,-0.36475 -6.82354,0.14996 m 21.76474,0 c -0.282866,2.85313 -0.117647,5.82226 -0.117647,8.6981 v 14.99672 c 0,2.85354 0.240385,6.59816 3.058828,6.59855 v -8.24819 h 0.117647 c 0.06423,3.96596 2.720995,8.44281 5.176479,10.64767 -0.18932,-3.03251 -0.470101,-5.76816 1.306467,-8.24762 0.767299,-1.07088 1.756401,-1.57214 2.693539,-2.33166 2.143903,-1.73757 4.484303,-4.25888 4.70589,-7.71672 h 0.117647 c -0.05163,3.54801 -0.117647,7.09344 -0.117647,10.64767 0,1.16715 0.318956,3.2952 -0.155044,4.32625 -0.482889,1.05039 -1.468278,-0.51633 -1.784046,-1.02697 -1.192011,-1.92768 -1.47268,-3.91382 -1.47268,-6.29862 -3.048499,1.81645 -5.137549,5.76247 -4.184918,10.0478 0.183996,0.82769 0.470492,2.34866 1.070716,2.84521 0.568644,0.47041 1.865651,0.15413 2.525966,0.15413 2.284366,0 4.810978,0.382 7.058834,-0.14997 0.282866,-2.85313 0.117648,-5.82225 0.117648,-8.69809 v -15.14669 c 0,-2.82766 -0.298053,-6.4482 -3.058829,-6.44858 v 8.24819 H 79.15064 c -0.06432,-3.97285 -2.717156,-8.43937 -5.176479,-10.64767 0.189231,3.03105 0.470938,5.77007 -1.306466,8.24762 -0.760636,1.06026 -1.76365,1.57801 -2.69354,2.33166 -2.148814,1.74155 -4.483772,4.2502 -4.70589,7.71671 h -0.117647 c 0.0018,-3.53804 0.117647,-7.09766 0.117647,-10.64766 0,-1.16716 -0.318955,-3.29519 0.155048,-4.32626 0.482886,-1.05038 1.468278,0.51634 1.784042,1.02698 1.192008,1.92769 1.47268,3.91381 1.47268,6.29862 3.048499,-1.81646 5.137549,-5.76248 4.184918,-10.0478 -0.183996,-0.82769 -0.470492,-2.34867 -1.070716,-2.84521 -0.56864,-0.47042 -1.865654,-0.15413 -2.525965,-0.15413 -2.284374,0 -4.810971,-0.38198 -7.058835,0.14996 m 21.647093,0 c -0.282866,2.85313 -0.117647,5.82227 -0.117647,8.6981 v 15.14668 c 0,2.82767 0.298053,6.44821 3.058828,6.44859 0,-5.90681 0.117647,-11.79509 0.117647,-17.69612 v -4.79895 c 0,-0.67267 -0.123492,-1.62084 0.155044,-2.22672 0.482889,-1.05038 1.468278,0.51633 1.784046,1.02698 1.192011,1.92768 1.47268,3.91382 1.47268,6.29862 3.048506,-1.81648 5.137546,-5.76247 4.184916,-10.0478 -0.184,-0.82769 -0.4705,-2.34868 -1.07071,-2.84521 -0.589292,-0.4875 -1.957983,-0.15413 -2.643617,-0.15413 -2.294272,0 -4.665061,-0.21672 -6.941187,0.14996 m 22.11767,0 c -0.28286,2.85312 -0.11764,5.82227 -0.11764,8.6981 v 14.99672 c 0,2.85978 0.23296,6.59816 3.05882,6.59855 0,-5.9039 0.11765,-11.79623 0.11765,-17.69612 v -4.79895 c 0,-0.67267 -0.12349,-1.62084 0.15504,-2.22672 0.50943,-1.10812 1.54524,0.65477 1.85685,1.17695 1.13917,1.90887 1.39988,3.81108 1.39988,6.14865 3.05182,-1.81845 5.13816,-5.75972 4.18492,-10.0478 -0.184,-0.82769 -0.47049,-2.34868 -1.07071,-2.84521 -0.56864,-0.47041 -1.86566,-0.15413 -2.52597,-0.15413 -2.28438,0 -4.81097,-0.38199 -7.05884,0.14996 m 21.6471,0 c -0.28287,2.85312 -0.11765,5.82227 -0.11765,8.6981 v 15.29665 c 0,2.56257 0.35637,6.6625 3.05883,6.29862 0,-5.90494 0.11764,-11.79514 0.11764,-17.69612 v -4.79895 c 0,-0.67267 -0.12349,-1.62084 0.15505,-2.22672 0.50943,-1.10811 1.54522,0.65477 1.85685,1.17695 1.13917,1.90887 1.39987,3.81108 1.39987,6.14865 3.05365,-1.81954 5.13891,-5.75629 4.18492,-10.0478 -0.18398,-0.82767 -0.47051,-2.34869 -1.07071,-2.84521 -0.56864,-0.47041 -1.86566,-0.15413 -2.52597,-0.15413 -2.28438,0 -4.81096,-0.38199 -7.05883,0.14996 m 21.76474,0 c -0.28289,2.85311 -0.11765,5.82227 -0.11765,8.6981 v 15.14668 c 0,2.82291 0.3066,6.44821 3.05883,6.44859 0,-5.90645 0.11764,-11.79606 0.11764,-17.69612 v -4.79895 c 0,-0.67266 -0.12349,-1.62085 0.15505,-2.22672 0.48289,-1.0504 1.46829,0.51635 1.78405,1.02698 1.18545,1.91706 1.47267,3.92636 1.47267,6.29862 3.04668,-1.81537 5.13677,-5.76592 4.18492,-10.0478 -0.18399,-0.82769 -0.4705,-2.34868 -1.07071,-2.84521 -0.56865,-0.47042 -1.86567,-0.15413 -2.52597,-0.15413 -2.28437,0 -4.81097,-0.38198 -7.05883,0.14996 m 22.11768,0 c -0.28289,2.85311 -0.11765,5.82227 -0.11765,8.6981 v 14.99672 c 0,2.85977 0.23298,6.59816 3.05883,6.59855 v -8.24819 h 0.11764 c 0.0641,3.96208 2.72508,8.44646 5.17648,10.64767 -0.18933,-3.03251 -0.47008,-5.76816 1.30647,-8.24762 0.76724,-1.07079 1.75631,-1.57246 2.69354,-2.33166 2.143,-1.73596 4.48465,-4.26357 4.70589,-7.71672 h 0.11765 c 0,3.54396 -0.11765,7.09402 -0.11765,10.64767 0,1.16715 0.31896,3.2952 -0.15504,4.32625 -0.48289,1.05037 -1.46828,-0.51632 -1.78406,-1.02697 -1.19201,-1.92767 -1.47267,-3.91384 -1.47267,-6.29862 -3.0485,1.81645 -5.13753,5.76247 -4.18492,10.0478 0.18399,0.82768 0.4705,2.34868 1.07071,2.84521 0.5893,0.4875 1.95797,0.15413 2.64362,0.15413 2.29428,0 4.66505,0.21672 6.94119,-0.14997 0.28289,-2.85312 0.11765,-5.82226 0.11765,-8.69809 v -14.99672 c 0,-2.85978 -0.23297,-6.59816 -3.05883,-6.59855 v 8.39816 h -0.11765 c -0.0657,-4.06175 -2.64847,-8.52766 -5.17648,-10.79764 0.18925,3.03105 0.47092,5.77007 -1.30647,8.24762 -0.76064,1.06028 -1.76363,1.578 -2.69354,2.33166 -2.14927,1.74192 -4.48382,4.2505 -4.70589,7.71671 h -0.11764 c 0,-3.64168 0.11764,-7.29531 0.11764,-10.9476 0,-1.06716 -0.32126,-3.26483 0.22803,-4.14909 0.50764,-0.81721 1.42326,0.68431 1.71107,1.14975 1.19201,1.92768 1.47268,3.91382 1.47268,6.29862 3.05026,-1.81751 5.13824,-5.75926 4.18492,-10.0478 -0.184,-0.82769 -0.47049,-2.34867 -1.07072,-2.84521 -0.56865,-0.47042 -1.86565,-0.15413 -2.52597,-0.15413 -2.28437,0 -4.81097,-0.38198 -7.05883,0.14996 m -119.294299,2.24951 c 0.182869,2.92912 0.421808,5.23176 -1.015342,7.79829 -1.324167,2.36476 -3.869517,3.38859 -5.54231,5.36075 -3.277496,3.86406 -2.089861,9.389 0.223039,13.38515 0.809455,1.39855 1.805288,2.89566 2.922843,3.89915 -0.182868,-2.92913 -0.421807,-5.23176 1.015343,-7.7983 1.325542,-2.36722 3.873326,-3.3817 5.54231,-5.36063 3.234043,-3.83464 2.130543,-9.42732 -0.220133,-13.38526 -0.827121,-1.39267 -1.801412,-2.88957 -2.92575,-3.89915 m 43.411833,0 c 0.18201,2.91517 0.4326,5.25018 -1.0158,7.79829 -1.34026,2.35786 -3.873131,3.38202 -5.541856,5.36063 -3.269091,3.87618 -2.096705,9.37722 0.223044,13.38527 0.80945,1.39855 1.805294,2.89565 2.922842,3.89915 -0.296064,-2.97064 -0.387725,-5.61832 1.1969,-8.09766 1.0963,-1.71529 2.84636,-2.51986 4.21487,-3.83932 2.729036,-2.63121 3.949526,-6.66969 2.698166,-10.85803 -0.398116,-1.33253 -1.100516,-2.61788 -1.772416,-3.74918 -0.82713,-1.39267 -1.80141,-2.88956 -2.92575,-3.89915 m 22.117676,0 c 0.18289,2.92912 0.42179,5.23177 -1.01535,7.79829 -1.32658,2.36909 -3.86554,3.38467 -5.54231,5.36075 -3.24895,3.8289 -2.12941,9.42912 0.22014,13.38515 0.82712,1.39267 1.80141,2.88956 2.92575,3.89915 -0.32981,-3.3092 -0.31204,-6.27409 1.69708,-8.80294 2.46394,-3.10131 6.70764,-4.2755 6.89117,-9.64303 h 0.11764 c -0.002,3.58793 -0.11764,7.19772 -0.11764,10.79764 0,1.16715 0.31895,3.2952 -0.15505,4.32625 -0.48234,1.0492 -1.46543,-0.50946 -1.77461,-1.02697 -1.17785,-1.97157 -1.48211,-3.87583 -1.48211,-6.29862 -3.00773,1.79217 -4.99827,5.85979 -4.06727,10.0478 0.18399,0.82769 0.47049,2.34867 1.07071,2.84521 0.56863,0.4704 1.86566,0.15413 2.52597,0.15413 2.29428,0 4.66506,0.21672 6.94118,-0.14997 0.38352,-2.63326 0.11765,-5.57285 0.11765,-8.24819 v -15.74655 c 0,-2.80748 -0.34947,-6.29825 -3.05883,-6.29862 v 8.39816 h -0.11764 c -0.0262,-4.03439 -2.67705,-8.5533 -5.17648,-10.79764 m 21.64709,0 c 0.18289,2.92909 0.42182,5.2318 -1.01534,7.79829 -1.32679,2.3694 -3.86581,3.38421 -5.54232,5.36075 -3.24839,3.82974 -2.12981,9.42845 0.22014,13.38515 0.82713,1.39266 1.80142,2.88956 2.92575,3.89915 -0.29606,-2.97064 -0.38773,-5.61832 1.1969,-8.09766 1.0963,-1.71529 2.84636,-2.51986 4.21487,-3.83932 2.72904,-2.63121 3.94954,-6.66971 2.69816,-10.85803 -0.39997,-1.33871 -1.11167,-2.60255 -1.77532,-3.74918 -0.80946,-1.39856 -1.80528,-2.89566 -2.92284,-3.89915 m 21.76474,0 c 0.18201,2.91519 0.43257,5.25016 -1.0158,7.79829 -1.34272,2.36227 -3.86932,3.37752 -5.54186,5.36063 -3.24034,3.84205 -2.13563,9.41883 0.22015,13.38527 0.82713,1.39266 1.8014,2.88957 2.92574,3.89915 -0.18334,-2.93628 -0.41366,-5.22004 1.01571,-7.7983 1.3166,-2.37481 3.87304,-3.38181 5.54195,-5.36063 3.23672,-3.83776 2.13353,-9.42236 -0.22015,-13.38526 -0.82713,-1.39266 -1.8014,-2.88957 -2.92574,-3.89915 m -103.529565,2.39948 c 0,5.90503 -0.117648,11.7948 -0.117648,17.69612 v 4.79895 c 0,0.67267 0.123489,1.62083 -0.155047,2.22671 -0.482886,1.05039 -1.468278,-0.51633 -1.784043,-1.02697 -1.192007,-1.92769 -1.47268,-3.91382 -1.47268,-6.29862 -3.046668,1.81536 -5.136784,5.76591 -4.184918,10.0478 0.183997,0.82769 0.470492,2.34867 1.070717,2.84521 0.56864,0.47041 1.865653,0.15413 2.525965,0.15413 2.28437,0 4.810978,0.382 7.058835,-0.14997 0.282866,-2.85313 0.117647,-5.82225 0.117647,-8.69809 v -14.99672 c 0,-2.85354 -0.240389,-6.59816 -3.058828,-6.59855 m 43.411825,0 c 0,5.90665 -0.11765,11.79556 -0.11765,17.69612 v 4.79895 c 0,0.67266 0.12349,1.62085 -0.15504,2.22671 -0.48289,1.05039 -1.468276,-0.51633 -1.784036,-1.02697 -1.19202,-1.92768 -1.47268,-3.91382 -1.47268,-6.29862 -3.04851,1.81647 -5.137549,5.76246 -4.18492,10.0478 0.184,0.82769 0.47049,2.34867 1.07071,2.84521 0.56864,0.4704 1.86565,0.15413 2.52597,0.15413 2.28437,0 4.810966,0.38201 7.058826,-0.14997 0.28287,-2.85313 0.11765,-5.82225 0.11765,-8.69809 v -14.99672 c 0,-2.85978 -0.23298,-6.59816 -3.05883,-6.59855 m 43.76477,0 c 0,5.90646 -0.11764,11.79605 -0.11764,17.69612 v 4.79895 c 0,0.67266 0.12349,1.62084 -0.15505,2.22671 -0.48288,1.05038 -1.46829,-0.51633 -1.78405,-1.02697 -1.19201,-1.92768 -1.47267,-3.91384 -1.47267,-6.29862 -3.04851,1.81645 -5.13755,5.76247 -4.18492,10.0478 0.184,0.82769 0.47048,2.34866 1.07071,2.84521 0.5893,0.4875 1.95798,0.15413 2.64362,0.15413 2.29429,0 4.66504,0.21672 6.94118,-0.14997 0.38352,-2.63326 0.11765,-5.57284 0.11765,-8.24819 v -15.74655 c 0,-2.7904 -0.35864,-6.29825 -3.05883,-6.29862 m 21.76474,0 c 0,5.85704 -0.11764,11.69446 -0.11764,17.54615 v 4.94892 c 0,0.68666 0.10518,1.6017 -0.16866,2.22671 -0.48389,1.10439 -1.55858,-0.66358 -1.85958,-1.17694 -1.12157,-1.91285 -1.38353,-3.82091 -1.38353,-6.14865 -2.99312,1.78345 -5.10311,5.66705 -4.21705,9.89783 0.1875,0.89531 0.48666,2.51178 1.17057,2.99518 0.66204,0.46793 1.95175,0.15413 2.69353,0.15413 2.21014,0 4.64852,0.36477 6.82354,-0.14997 0.28289,-2.85312 0.11765,-5.82226 0.11765,-8.69809 v -14.99672 c 0,-2.85978 -0.23297,-6.59816 -3.05883,-6.59855 M 21.385844,185.09076 v -8.39816 h 0.117647 c 0.02624,4.04115 2.673287,8.54994 5.176479,10.79764 -0.189231,-3.03105 -0.470933,-5.77006 1.306466,-8.24762 0.760628,-1.06025 1.763651,-1.57801 2.69354,-2.33167 2.143897,-1.73755 4.484325,-4.25887 4.70589,-7.71671 h 0.117647 c -0.161988,3.54341 -0.117647,7.09541 -0.117647,10.64767 0,1.16716 0.318956,3.29519 -0.155048,4.32626 -0.482886,1.05038 -1.468282,-0.51634 -1.784044,-1.02698 -1.19201,-1.92769 -1.472678,-3.91382 -1.472678,-6.29862 -2.689578,1.60259 -4.978201,5.21139 -4.352494,9.148 0.12443,0.78285 0.308889,2.37014 0.872278,2.84521 0.6031,0.50855 2.067652,0.15413 2.774332,0.15413 h 7.294129 v -22.94498 c 0,-2.85979 -0.232975,-6.59816 -3.058828,-6.59855 v 8.39816 h -0.117647 c -0.0262,-4.03438 -2.677046,-8.55332 -5.176479,-10.79764 0.193458,3.09875 0.463637,5.91973 -1.416851,8.39597 -2.31114,3.04331 -6.823199,4.21632 -7.171398,9.30016 h -0.117647 c -0.504681,-3.2967 0,-7.41212 0,-10.79764 0,-0.95419 -0.288233,-2.91988 0.218592,-3.69918 0.525535,-0.80808 1.423376,0.66924 1.7205,1.14974 1.192011,1.92768 1.472678,3.91382 1.472678,6.29862 3.048495,-1.81645 5.137554,-5.76247 4.18492,-10.0478 -0.183997,-0.82769 -0.470494,-2.34867 -1.070717,-2.84521 -0.397758,-0.32904 -1.131409,-0.15413 -1.584789,-0.15413 h -3.882359 c -0.962343,0 -3.133324,-0.51712 -3.939548,0.19764 -0.419214,0.37166 -0.295724,1.34421 -0.295752,1.9019 v 5.54879 c 0,6.02931 -0.204086,12.12324 0.0046,18.14602 0.08487,2.44904 1.030684,4.6487 3.054199,4.64898 m 22.000034,0 c 0,-5.90682 0.117647,-11.79507 0.117647,-17.69612 v -4.79895 c 0,-0.67267 -0.123488,-1.62083 0.155048,-2.22671 0.482888,-1.05039 1.468282,0.51633 1.784044,1.02697 1.192012,1.92769 1.472679,3.91382 1.472679,6.29862 3.050258,-1.81751 5.138263,-5.75925 4.184917,-10.0478 -0.183999,-0.8277 -0.470488,-2.34866 -1.070716,-2.84521 -0.397759,-0.32905 -1.131407,-0.15413 -1.584787,-0.15413 h -3.882359 c -0.962343,0 -3.133326,-0.51712 -3.939549,0.19764 -0.419216,0.37166 -0.295725,1.34421 -0.295752,1.9019 v 5.39882 c 0,6.1003 -0.323973,12.36217 0.01053,18.44596 0.125018,2.27376 1.053253,4.71094 3.048298,4.49901 m 21.76474,0 v -8.24819 h 0.117647 c 0.06423,3.96596 2.720999,8.44281 5.176479,10.64767 -0.18932,-3.0325 -0.470101,-5.76816 1.306467,-8.24762 2.469522,-3.44657 7.20431,-4.49174 7.399429,-10.19834 h 0.117647 c 0,3.59094 -0.117647,7.19685 -0.117647,10.79763 0,1.16715 0.318956,3.29521 -0.155044,4.32626 -0.482889,1.05038 -1.468278,-0.51634 -1.784046,-1.02698 -1.186622,-1.91896 -1.47268,-3.92102 -1.47268,-6.29862 -2.689572,1.60259 -4.978211,5.21139 -4.352496,9.148 0.124433,0.78285 0.308889,2.37014 0.87228,2.84521 0.6031,0.50855 2.067652,0.15413 2.774333,0.15413 h 7.294129 v -22.94498 c 0,-2.86125 -0.23518,-6.59816 -3.058829,-6.59855 v 8.24819 h -0.117647 c -0.06432,-3.97285 -2.71716,-8.43936 -5.176479,-10.64767 0.189231,3.03105 0.470938,5.77007 -1.306466,8.24762 -2.472686,3.44672 -7.20411,4.48806 -7.39943,10.19835 h -0.117647 c 0,-3.59098 0.117647,-7.19579 0.117647,-10.79764 0,-1.16715 -0.318955,-3.2952 0.155048,-4.32625 0.509432,-1.10812 1.545229,0.65477 1.856847,1.17694 1.139165,1.90888 1.399875,3.81108 1.399875,6.14865 3.046665,-1.81536 5.136785,-5.76591 4.184918,-10.0478 -0.183996,-0.82769 -0.470492,-2.34866 -1.070716,-2.84521 -0.397759,-0.32905 -1.131407,-0.15413 -1.584787,-0.15413 h -3.882359 c -0.96234,0 -3.133328,-0.51712 -3.939549,0.19764 -0.419216,0.37166 -0.295723,1.34421 -0.295752,1.9019 v 5.54879 c 0,6.02931 -0.204106,12.12324 0.0046,18.14602 0.08488,2.44903 1.030674,4.6487 3.054197,4.64898 m 21.647093,0 c 0,-5.90665 0.117647,-11.79556 0.117647,-17.69612 v -4.79895 c 0,-0.67267 -0.123492,-1.62083 0.155044,-2.22671 0.509436,-1.10813 1.545233,0.65477 1.85685,1.17694 1.139169,1.90888 1.399876,3.81108 1.399876,6.14865 3.048506,-1.81648 5.137546,-5.76246 4.184916,-10.0478 -0.184,-0.82769 -0.47049,-2.34867 -1.07071,-2.84521 -0.39776,-0.32905 -1.131407,-0.15413 -1.584792,-0.15413 h -3.882359 c -0.962346,0 -3.13332,-0.51712 -3.939552,0.19764 -0.419219,0.37166 -0.29572,1.34422 -0.295748,1.9019 v 5.54879 c 0,6.02931 -0.204081,12.12324 0.0046,18.14602 0.08487,2.44904 1.030677,4.6487 3.054197,4.64898 m 22.11767,0 c 0,-5.90698 0.11765,-11.79461 0.11765,-17.69612 v -4.79895 c 0,-0.67267 -0.12349,-1.62084 0.15504,-2.22671 0.48289,-1.05038 1.46828,0.51633 1.78405,1.02697 1.19201,1.92768 1.47268,3.91382 1.47268,6.29862 3.0485,-1.81648 5.13755,-5.76246 4.18492,-10.0478 -0.184,-0.82769 -0.47049,-2.34867 -1.07071,-2.84521 -0.39777,-0.32905 -1.13142,-0.15413 -1.5848,-0.15413 h -3.88235 c -0.96236,0 -3.13332,-0.51712 -3.93956,0.19764 -0.41921,0.37165 -0.29572,1.34422 -0.29574,1.9019 v 5.54879 c 0,6.02931 -0.20409,12.12324 0.005,18.14602 0.0849,2.44904 1.03067,4.6487 3.05419,4.64898 m 21.6471,0 c 0,-5.90682 0.11764,-11.79507 0.11764,-17.69612 v -4.79895 c 0,-0.67267 -0.12349,-1.62084 0.15505,-2.22671 0.48289,-1.05038 1.46828,0.51632 1.78404,1.02697 1.19201,1.92769 1.47268,3.91381 1.47268,6.29862 3.04851,-1.81648 5.13753,-5.76246 4.18492,-10.0478 -0.18399,-0.82768 -0.4705,-2.34868 -1.07071,-2.84521 -0.39776,-0.32904 -1.1314,-0.15413 -1.58479,-0.15413 h -3.88236 c -0.96235,0 -3.13332,-0.51712 -3.93955,0.19764 -0.41922,0.37165 -0.29572,1.34422 -0.29575,1.9019 v 5.54879 c 0,6.02931 -0.20408,12.12324 0.005,18.14602 0.0849,2.44903 1.03068,4.6487 3.0542,4.64898 m 21.76474,0 c 0,-5.90665 0.11764,-11.79556 0.11764,-17.69612 v -4.79895 c 0,-0.67266 -0.12349,-1.62085 0.15505,-2.22671 0.48289,-1.05039 1.46829,0.51634 1.78405,1.02697 1.19201,1.92767 1.47267,3.91383 1.47267,6.29862 3.05366,-1.81954 5.13891,-5.75629 4.18492,-10.0478 -0.18399,-0.82768 -0.4705,-2.34868 -1.07071,-2.84521 -0.39776,-0.32905 -1.13142,-0.15413 -1.58479,-0.15413 h -3.88236 c -0.96235,0 -3.13331,-0.51712 -3.93955,0.19764 -0.41922,0.37165 -0.29572,1.34421 -0.29575,1.9019 v 5.39882 c 0,6.1003 -0.32393,12.36215 0.0105,18.44596 0.12189,2.217 1.05998,4.76926 3.04831,4.49901 m 22.11768,0 v -8.24819 h 0.11764 c 0.0643,3.97283 2.71719,8.4394 5.17648,10.64767 -0.18906,-3.02816 -0.4678,-5.77049 1.30647,-8.24762 2.46919,-3.44734 7.20422,-4.49119 7.39943,-10.19834 h 0.11765 c 0,3.69338 -0.11765,7.39648 -0.11765,11.09757 0,1.06717 0.32126,3.26483 -0.22803,4.14909 -0.50764,0.8172 -1.42325,-0.68431 -1.71107,-1.14975 -1.19201,-1.92766 -1.47267,-3.91384 -1.47267,-6.29862 -2.69186,1.60396 -4.97885,5.20737 -4.35249,9.148 0.12443,0.78284 0.30888,2.37014 0.87227,2.84521 0.6031,0.50855 2.06765,0.15413 2.77434,0.15413 h 7.29413 v -22.94498 c 0,-2.85354 -0.2404,-6.59816 -3.05883,-6.59855 v 8.39816 h -0.11765 c -0.0262,-4.04115 -2.67329,-8.54994 -5.17648,-10.79764 0.29698,2.97962 0.41562,5.84417 -1.30647,8.24762 -2.47224,3.45039 -7.20401,4.48525 -7.39943,10.19835 h -0.11764 c 0,-3.69243 0.11764,-7.3968 0.11764,-11.09757 0,-1.06717 -0.32126,-3.26484 0.22803,-4.14909 0.51231,-0.82474 1.40617,0.68544 1.69328,1.14974 1.20116,1.9425 1.49047,3.88924 1.49047,6.29862 3.04851,-1.81646 5.13753,-5.76247 4.18492,-10.0478 -0.184,-0.82768 -0.47051,-2.34868 -1.07072,-2.84521 -0.39776,-0.32905 -1.13142,-0.15413 -1.58479,-0.15413 H 175.622 c -0.96235,0 -3.13332,-0.51711 -3.93955,0.19764 -0.4192,0.37165 -0.29572,1.34421 -0.29575,1.9019 v 5.54879 c 0,6.02932 -0.20406,12.12324 0.005,18.14602 0.0849,2.44903 1.03071,4.6487 3.05421,4.64898 M 52.209421,157.0469 c 0.288216,2.89188 0.406273,5.50225 -1.104666,7.94826 -1.111714,1.79973 -2.898065,2.63018 -4.307107,3.98872 -2.73281,2.63485 -3.948402,6.67347 -2.698171,10.85803 0.39997,1.33872 1.11168,2.60255 1.775331,3.74918 0.809455,1.39855 1.805288,2.89566 2.922843,3.89915 -0.18294,-2.9303 -0.420906,-5.23024 1.015343,-7.79829 1.32514,-2.36939 3.870662,-3.37854 5.54231,-5.36063 3.234043,-3.83465 2.130543,-9.42732 -0.220133,-13.38527 -0.827121,-1.39266 -1.801416,-2.88957 -2.92575,-3.89915 m 43.411833,0 c 0.18202,2.91523 0.43256,5.25011 -1.0158,7.7983 -1.34269,2.36227 -3.869332,3.37751 -5.541856,5.36063 -3.236728,3.83782 -2.133527,9.42231 0.220136,13.38526 0.827128,1.39268 1.801409,2.88956 2.92575,3.89915 -0.182459,-2.92229 -0.424611,-5.23847 1.01616,-7.79829 1.33121,-2.36517 3.87277,-3.38202 5.5415,-5.36063 3.237646,-3.83893 2.135386,-9.41916 -0.22014,-13.38527 -0.82713,-1.39267 -1.80141,-2.88956 -2.92575,-3.89915 m 22.117676,0 c 0.18289,2.92912 0.42179,5.23178 -1.01535,7.7983 -1.32695,2.36973 -3.86812,3.38307 -5.5424,5.36063 -3.24217,3.82947 -2.12975,9.42852 0.22023,13.38526 0.82712,1.39267 1.80141,2.88956 2.92575,3.89915 -0.20603,-3.29966 -0.39125,-6.06527 1.59758,-8.67044 0.68457,-0.89671 1.60002,-1.3292 2.40242,-2.00812 2.0935,-1.77137 4.36853,-4.18882 4.58825,-7.61744 h 0.11764 c -0.18198,3.49103 -0.11764,6.99816 -0.11764,10.49771 0,1.23806 0.31719,3.36736 -0.16867,4.47622 -0.48389,1.10435 -1.55855,-0.66356 -1.85957,-1.17695 -1.11525,-1.90207 -1.38353,-3.83365 -1.38353,-6.14865 -2.65828,1.58396 -4.84756,5.29325 -4.23485,9.148 0.12443,0.78285 0.30889,2.37014 0.87228,2.84521 0.6031,0.50855 2.06766,0.15413 2.77433,0.15413 h 7.17648 v -22.94498 c 0,-2.85978 -0.23297,-6.59816 -3.05883,-6.59855 v 8.39816 h -0.11764 c -0.0262,-4.03439 -2.67706,-8.5533 -5.17648,-10.79764 m 21.64709,0 c 0.18296,2.93027 0.42091,5.23029 -1.01534,7.7983 -1.32656,2.37188 -3.86538,3.37982 -5.5424,5.36063 -3.24218,3.82947 -2.12975,9.42852 0.22022,13.38526 0.82713,1.39267 1.80142,2.88956 2.92575,3.89915 -0.18334,-2.93626 -0.41369,-5.22005 1.0157,-7.79829 1.31394,-2.36999 3.87687,-3.38636 5.54196,-5.36063 3.26945,-3.87656 2.0956,-9.37918 -0.22305,-13.38527 -0.80946,-1.39855 -1.80529,-2.89565 -2.92284,-3.89915 m 21.76474,0 c 0.18289,2.92909 0.42182,5.23181 -1.01534,7.7983 -1.32698,2.36972 -3.86811,3.38308 -5.5424,5.36063 -3.2458,3.8337 -2.13186,9.42504 0.22023,13.38526 0.82713,1.39266 1.8014,2.88956 2.92574,3.89915 -0.29685,-2.9783 -0.38279,-5.60887 1.19689,-8.09811 1.09159,-1.72011 2.84475,-2.51783 4.21488,-3.83886 2.72387,-2.62622 3.94782,-6.67551 2.69816,-10.85804 -0.39813,-1.33254 -1.1005,-2.61787 -1.77242,-3.74918 -0.82713,-1.39266 -1.8014,-2.88957 -2.92574,-3.89915 m -103.529565,2.39948 c 0,5.90523 -0.117648,11.79515 -0.117648,17.69612 v 4.79895 c 0,0.67268 0.123493,1.62084 -0.155047,2.22672 -0.482886,1.05038 -1.468278,-0.51634 -1.784043,-1.02698 -1.185451,-1.91708 -1.47268,-3.92634 -1.47268,-6.29862 -2.689572,1.60259 -4.978211,5.21139 -4.352495,9.148 0.124433,0.78284 0.308892,2.37014 0.87228,2.84521 0.6031,0.50855 2.067648,0.15413 2.774332,0.15413 h 7.294129 v -22.94498 c 0,-2.85978 -0.232972,-6.59816 -3.058828,-6.59855 m 43.411825,0 c 0,5.85611 -0.11765,11.69694 -0.11765,17.54616 v 4.94891 c 0,0.68665 0.10519,1.60172 -0.16866,2.22672 -0.4839,1.10436 -1.558556,-0.66356 -1.859566,-1.17695 -1.12156,-1.91284 -1.38353,-3.82092 -1.38353,-6.14865 -2.68956,1.6026 -4.978226,5.21138 -4.3525,9.148 0.12443,0.78285 0.30889,2.37014 0.87228,2.84521 0.60311,0.50855 2.06764,0.15413 2.77433,0.15413 h 7.294126 v -22.94498 c 0,-2.85355 -0.24039,-6.59816 -3.05883,-6.59855 m 43.76477,0 c 0,5.90665 -0.11764,11.79556 -0.11764,17.69612 v 4.79895 c 0,0.67267 0.12349,1.62085 -0.15505,2.22672 -0.4829,1.05038 -1.46829,-0.51635 -1.78405,-1.02698 -1.19201,-1.92767 -1.47267,-3.91383 -1.47267,-6.29862 -2.62937,1.56672 -4.95796,5.12085 -4.37592,8.99803 0.12159,0.80992 0.33343,2.67249 0.99646,3.05882 0.73503,0.4283 2.10607,0.0905 2.90887,0.0905 h 7.05883 v -22.94498 c 0,-2.85978 -0.23298,-6.59816 -3.05883,-6.59855 m 21.76474,0 c 0,5.90712 -0.11764,11.79415 -0.11764,17.69612 v 4.79895 c 0,0.67266 0.12347,1.62086 -0.15505,2.22672 -0.48288,1.05037 -1.46829,-0.51634 -1.78405,-1.02698 -1.18546,-1.91707 -1.47267,-3.92636 -1.47267,-6.29862 -2.68958,1.6026 -4.97821,5.21139 -4.35249,9.148 0.12444,0.78285 0.30886,2.37013 0.87227,2.84521 0.6031,0.50855 2.06766,0.15413 2.77433,0.15413 h 7.29413 v -22.94498 c 0,-2.85706 -0.22903,-6.59816 -3.05883,-6.59855 M 21.503491,174.74303 v 0.74984 h -0.117647 z"
       id="path1" /></g></svg>
